<svg width="78" height="71" viewBox="0 0 78 71" fill="none" xmlns="http://www.w3.org/2000/svg">
<path d="M63.66 9.93994H14.34C13.5284 9.93994 12.7501 10.2372 12.1762 10.7664C11.6024 11.2955 11.28 12.0132 11.28 12.7615V58.2391C11.2802 58.9873 11.6027 59.7048 12.1765 60.2338C12.7504 60.7628 13.5286 61.0599 14.34 61.0599H40.8919V41.2637H33.667V33.5489H40.8919V27.8589C40.8919 21.2559 45.2655 17.6612 51.6534 17.6612C54.7134 17.6612 57.3429 17.8706 58.1099 17.9651V24.8656L53.6793 24.8677C50.205 24.8677 49.5328 26.3899 49.5328 28.6236V33.5496H57.818L56.7393 41.2644H49.5328V61.0599H63.6608C64.4722 61.0598 65.2503 60.7624 65.824 60.2333C66.3977 59.7042 66.72 58.9866 66.72 58.2384V12.7615C66.72 12.0132 66.3976 11.2955 65.8238 10.7664C65.2499 10.2372 64.4716 9.93994 63.66 9.93994V9.93994Z" fill="#FFC365"/>
</svg>
