<svg width="70" height="71" viewBox="0 0 70 71" fill="none" xmlns="http://www.w3.org/2000/svg">
<path d="M47.3931 32.1544C47.3931 39.1969 41.8448 44.906 35.0007 44.906C28.1566 44.906 22.6083 39.1969 22.6083 32.1544C22.6083 30.17 23.0616 28.2991 23.8468 26.625H10.16V56.445C10.16 59.1785 12.3335 61.415 14.99 61.415H55.01C57.6665 61.415 59.84 59.1785 59.84 56.445V26.625H46.1539C46.9678 28.348 47.3915 30.2386 47.3931 32.1544V32.1544ZM55.01 9.58496H14.99C12.3335 9.58496 10.16 11.8215 10.16 14.555V24.495H25.1089C27.3707 21.4072 30.9532 19.4028 35 19.4028C39.0469 19.4028 42.6293 21.4072 44.8912 24.495H59.84V14.555C59.84 11.8215 57.6665 9.58496 55.01 9.58496ZM14.1316 22.1633H12.3335V14.9959C12.3334 14.401 12.5041 13.8194 12.8242 13.324C13.1442 12.8286 13.5993 12.4415 14.1323 12.2113V22.1633H14.1316ZM17.0779 22.1633H15.3743V11.9762H17.0779V22.1633ZM20.0236 22.1633H18.3199V11.9762H20.0236V22.1633ZM22.9671 14.9959V22.1633H21.2656V11.9762H22.9671V14.9959V14.9959ZM57.3222 19.1437C57.3223 19.5401 57.2465 19.9327 57.0991 20.299C56.9518 20.6653 56.7357 20.9982 56.4634 21.2786C56.191 21.559 55.8676 21.7814 55.5117 21.9332C55.1558 22.085 54.7743 22.1632 54.389 22.1633H49.6218C49.2365 22.1633 48.8549 22.0852 48.4989 21.9335C48.1429 21.7817 47.8194 21.5593 47.547 21.2788C47.2745 20.9984 47.0584 20.6656 46.911 20.2992C46.7636 19.9328 46.6878 19.5402 46.6879 19.1437V14.9959C46.6878 14.5994 46.7636 14.2067 46.911 13.8404C47.0584 13.474 47.2745 13.1411 47.547 12.8607C47.8194 12.5803 48.1429 12.3579 48.4989 12.2061C48.8549 12.0544 49.2365 11.9762 49.6218 11.9762H54.389C54.7743 11.9762 55.1558 12.0544 55.5118 12.2061C55.8678 12.3579 56.1912 12.5803 56.4636 12.8608C56.736 13.1412 56.952 13.4741 57.0993 13.8404C57.2466 14.2068 57.3224 14.5994 57.3222 14.9959V19.1437Z" fill="#FFC365"/>
<path d="M35.0007 43.4151C41.0285 43.4151 45.9151 38.3848 45.9151 32.1836C45.9151 25.9818 41.0292 20.9514 35.0007 20.9514C28.9715 20.9514 24.0849 25.9818 24.0849 32.1836C24.0849 38.384 28.9715 43.4151 35.0007 43.4151V43.4151ZM35 23.2348C39.8024 23.2348 43.6968 27.2413 43.6968 32.1836C43.6968 37.1252 39.8031 41.1325 35 41.1325C30.1969 41.1325 26.3032 37.1259 26.3032 32.1836C26.3039 27.2406 30.1976 23.2348 35 23.2348Z" fill="#FFC365"/>
</svg>
