<svg width="83" height="71" viewBox="0 0 83 71" fill="none" xmlns="http://www.w3.org/2000/svg">
<path d="M73.07 18.5451C70.7058 19.4519 68.198 20.0469 65.6301 20.3101C68.3349 18.9089 70.3589 16.7039 71.325 14.1062C68.7827 15.413 66.0007 16.3332 63.0996 16.8269C61.8876 15.7075 60.4229 14.8156 58.7964 14.2064C57.17 13.5972 55.4163 13.2838 53.6442 13.2854C46.4905 13.2854 40.6898 18.3065 40.6898 24.502C40.6898 25.3803 40.8046 26.2372 41.026 27.0587C30.2594 26.5908 20.7146 22.1249 14.3252 15.338C13.1732 17.0499 12.5678 18.9963 12.5712 20.9775C12.5695 22.8243 13.0947 24.6428 14.1001 26.2714C15.1054 27.9001 16.5599 29.2885 18.3342 30.3133C16.2774 30.2568 14.2659 29.7758 12.4671 28.9104C12.4654 28.9572 12.4654 29.0034 12.4654 29.0517C12.4654 34.4846 16.9303 39.0179 22.8557 40.0496C20.9477 40.4968 18.9473 40.5623 17.0058 40.2413C18.654 44.6965 23.4379 47.9405 29.1065 48.0314C24.5177 51.1494 18.8512 52.8407 13.0181 52.8331C11.9726 52.8331 10.9419 52.7806 9.92754 52.6762C15.8507 55.9714 22.7443 57.7205 29.7847 57.7144C53.6122 57.7144 66.642 40.624 66.642 25.8034C66.642 25.3178 66.6289 24.8328 66.6043 24.3508C69.1418 22.7645 71.3315 20.7984 73.07 18.5451V18.5451Z" fill="#FFC365"/>
</svg>
