<svg width="27" height="28" viewBox="0 0 27 28" fill="none" xmlns="http://www.w3.org/2000/svg">
<path d="M0 2.625C0 2.39294 0.0888948 2.17038 0.247129 2.00628C0.405362 1.84219 0.619974 1.75 0.84375 1.75H3.375C3.56321 1.75005 3.746 1.81536 3.8943 1.93554C4.0426 2.05572 4.14789 2.22387 4.19344 2.41325L4.87688 5.25H24.4688C24.5926 5.25012 24.715 5.27853 24.8271 5.33321C24.9392 5.3879 25.0383 5.46751 25.1174 5.56641C25.1965 5.6653 25.2536 5.78104 25.2847 5.90541C25.3158 6.02977 25.3201 6.15971 25.2973 6.286L22.7661 20.286C22.7299 20.4865 22.6273 20.6676 22.476 20.798C22.3247 20.9284 22.1342 20.9998 21.9375 21H6.75C6.55329 20.9998 6.36283 20.9284 6.21154 20.798C6.06024 20.6676 5.95763 20.4865 5.92144 20.286L3.39187 6.31225L2.71688 3.5H0.84375C0.619974 3.5 0.405362 3.40781 0.247129 3.24372C0.0888948 3.07962 0 2.85706 0 2.625ZM5.23462 7L7.45031 19.25H21.2372L23.4529 7H5.23462ZM8.4375 21C7.54239 21 6.68395 21.3687 6.05101 22.0251C5.41808 22.6815 5.0625 23.5717 5.0625 24.5C5.0625 25.4283 5.41808 26.3185 6.05101 26.9749C6.68395 27.6313 7.54239 28 8.4375 28C9.33261 28 10.1911 27.6313 10.824 26.9749C11.4569 26.3185 11.8125 25.4283 11.8125 24.5C11.8125 23.5717 11.4569 22.6815 10.824 22.0251C10.1911 21.3687 9.33261 21 8.4375 21ZM20.25 21C19.3549 21 18.4965 21.3687 17.8635 22.0251C17.2306 22.6815 16.875 23.5717 16.875 24.5C16.875 25.4283 17.2306 26.3185 17.8635 26.9749C18.4965 27.6313 19.3549 28 20.25 28C21.1451 28 22.0035 27.6313 22.6365 26.9749C23.2694 26.3185 23.625 25.4283 23.625 24.5C23.625 23.5717 23.2694 22.6815 22.6365 22.0251C22.0035 21.3687 21.1451 21 20.25 21ZM8.4375 22.75C8.88505 22.75 9.31427 22.9344 9.63074 23.2626C9.94721 23.5908 10.125 24.0359 10.125 24.5C10.125 24.9641 9.94721 25.4092 9.63074 25.7374C9.31427 26.0656 8.88505 26.25 8.4375 26.25C7.98995 26.25 7.56073 26.0656 7.24426 25.7374C6.92779 25.4092 6.75 24.9641 6.75 24.5C6.75 24.0359 6.92779 23.5908 7.24426 23.2626C7.56073 22.9344 7.98995 22.75 8.4375 22.75ZM20.25 22.75C20.6976 22.75 21.1268 22.9344 21.4432 23.2626C21.7597 23.5908 21.9375 24.0359 21.9375 24.5C21.9375 24.9641 21.7597 25.4092 21.4432 25.7374C21.1268 26.0656 20.6976 26.25 20.25 26.25C19.8024 26.25 19.3732 26.0656 19.0568 25.7374C18.7403 25.4092 18.5625 24.9641 18.5625 24.5C18.5625 24.0359 18.7403 23.5908 19.0568 23.2626C19.3732 22.9344 19.8024 22.75 20.25 22.75V22.75Z" fill="white"/>
</svg>
